<?xml version="1.0" encoding="utf-8"?>
<!-- Generator: Adobe Illustrator 19.1.0, SVG Export Plug-In . SVG Version: 6.00 Build 0)  -->
<svg version="1.1" id="Слой_3" xmlns="http://www.w3.org/2000/svg" xmlns:xlink="http://www.w3.org/1999/xlink" x="0px" y="0px"
	 viewBox="0 0 128 128" enable-background="new 0 0 128 128" xml:space="preserve">
<g>
	<path fill="#B8CBCD" d="M109.178,113.679c0,5.625-21.675,9.813-48,9.813c-26.326,0-47.335-4.188-47.335-9.813
		c0-5.626,21.341-10.188,47.667-10.188C87.835,103.491,109.178,108.053,109.178,113.679z"/>
	<path fill="#FFFFFF" d="M37.693,109.767c0,3.891,5.116,7.045,23.015,7.045c17.899,0,23.016-3.154,23.016-7.045l7.515-54.955
		c0,3.892-12.631,7.046-30.53,7.046c-17.898,0-30.53-3.154-30.53-7.046L37.693,109.767z"/>
	<path fill="#B2EDA6" d="M37.693,109.767c0,3.891,5.116,7.045,23.015,7.045c17.899,0,23.016-3.154,23.016-7.045l2.817-24.895
		c0,3.892-8.873,7.046-26.773,7.046c-17.898,0-24.893-3.154-24.893-7.046L37.693,109.767z"/>
	<path fill="#3C663E" d="M60.708,118.811c-10.673,0-24.84-0.926-25.013-8.897l-7.417-54.236c-0.066-0.285-0.1-0.576-0.1-0.866
		c0-1.052,0.815-1.924,1.864-1.995c1.057-0.067,1.975,0.682,2.117,1.724l0.042,0.303c0.767,1.738,9.959,5.015,28.507,5.015
		c18.548,0,27.739-3.275,28.507-5.015l0.042-0.302c0.143-1.043,1.067-1.793,2.117-1.725c1.049,0.071,1.864,0.943,1.864,1.995
		c0,0.29-0.034,0.581-0.1,0.866l-7.416,54.236C85.549,117.886,71.381,118.811,60.708,118.811z M32.911,60.033l6.764,49.462
		c0.012,0.09,0.019,0.181,0.019,0.271c0,1.184,1.516,5.045,21.015,5.045c19.5,0,21.016-3.861,21.016-5.045
		c0-0.091,0.006-0.182,0.019-0.271l6.763-49.463c-8.05,3.595-23.916,3.824-27.797,3.824C56.827,63.857,40.961,63.628,32.911,60.033z
		"/>
	<ellipse fill="#B2EDA6" cx="60.708" cy="84.872" rx="26.303" ry="7.046"/>
	<path fill="#3C663E" d="M60.708,93.918c-9.789,0-28.303-1.891-28.303-9.046c0-7.154,18.514-9.045,28.303-9.045
		c9.789,0,28.303,1.891,28.303,9.045C89.011,92.027,70.497,93.918,60.708,93.918z M60.708,79.827
		c-16.187,0-24.048,3.662-24.303,5.054c0.255,1.374,8.116,5.037,24.303,5.037s24.048-3.663,24.303-5.055
		C84.756,83.489,76.895,79.827,60.708,79.827z"/>
	<circle fill="#3C663E" cx="52.253" cy="102.251" r="3.288"/>
	<circle fill="#3C663E" cx="66.189" cy="109.296" r="2.349"/>
	<circle fill="#3C663E" cx="68.223" cy="99.433" r="2.348"/>
	<path opacity="0.2" fill="#3C663E" d="M79.03,117.463c-0.136,0-0.272-0.009-0.41-0.027c-1.642-0.225-2.79-1.737-2.566-3.379
		l7.515-54.954c0.225-1.642,1.744-2.788,3.378-2.566c1.642,0.225,2.791,1.737,2.566,3.379l-7.515,54.954
		C81.793,116.373,80.506,117.463,79.03,117.463z"/>
	<path fill="#3C663E" d="M49.834,25.402c-0.321,0-0.643-0.052-0.953-0.155l-17.656-5.911c-1.571-0.526-2.418-2.226-1.892-3.797
		c0.526-1.571,2.226-2.416,3.797-1.893l15.164,5.076c3.119-5.267,12.748-16.032,38.978-15.23c1.656,0.052,2.956,1.437,2.905,3.093
		c-0.052,1.655-1.433,2.958-3.092,2.905c-29.387-0.917-34.343,13.669-34.39,13.816c-0.242,0.767-0.783,1.404-1.5,1.77
		C50.769,25.293,50.302,25.402,49.834,25.402z"/>
	<path fill="#B2EDA6" d="M61.178,36.023v-8.454c0-5.967,4.836-10.803,10.803-10.803l0,0c5.967,0,10.804,4.836,10.804,10.803v10.803
		L61.178,36.023z"/>
	<path fill="#3C663E" d="M82.784,40.372c-0.072,0-0.144-0.004-0.216-0.012l-21.606-2.349c-1.015-0.11-1.784-0.968-1.784-1.988
		v-8.454c0-7.059,5.743-12.803,12.803-12.803c7.06,0,12.804,5.743,12.804,12.803v10.803c0,0.568-0.242,1.109-0.664,1.488
		C83.751,40.191,83.275,40.372,82.784,40.372z M63.178,34.229l17.606,1.913v-8.573c0-4.854-3.949-8.803-8.804-8.803
		c-4.854,0-8.803,3.949-8.803,8.803V34.229z"/>
	<path fill="#B2EDA6" d="M30.178,41.491c0-3.892,12.632-6.877,30.53-6.877c17.899,0,30.53,3.154,30.53,7.046v13.151
		c0,3.892-12.631,7.046-30.53,7.046c-17.898,0-30.53-3.475-30.53-7.366V41.491z"/>
	<path fill="#3C663E" d="M60.708,63.857c-12.082,0-32.53-1.973-32.53-9.366v-13c0-8.449,27.098-8.877,32.53-8.877
		c5.432,0,32.53,0.437,32.53,9.046v13.151C93.238,63.421,66.14,63.857,60.708,63.857z M60.708,36.614
		c-18.792,0-27.991,3.261-28.536,4.924l0.006,12.953c0.445,1.553,9.292,5.366,28.53,5.366c18.813,0,28-3.37,28.535-5.089
		L89.238,41.66C88.708,39.984,79.521,36.614,60.708,36.614z"/>
	<path fill="#3C663E" d="M60.708,50.705c-5.432,0-32.53-0.437-32.53-9.045c0-1.104,0.895-2,2-2c1.104,0,2,0.896,2,2
		c0.53,1.676,9.718,5.045,28.53,5.045c18.813,0,28-3.369,28.535-5.088c0-1.104,0.893-1.979,1.998-1.979s1.997,0.917,1.997,2.021
		C93.238,50.268,66.14,50.705,60.708,50.705z"/>
	<path fill="#B2EDA6" d="M53.662,30.857c0,3.112-2.523,5.636-5.636,5.636l0,0c-3.112,0-5.637-2.524-5.637-5.636v-9.394
		c0-3.112,2.524-5.636,5.637-5.636l0,0c3.112,0,5.636,2.523,5.636,5.636V30.857z"/>
	<path fill="#3C663E" d="M48.026,38.493c-4.211,0-7.637-3.426-7.637-7.636v-9.394c0-4.21,3.426-7.636,7.637-7.636
		c4.21,0,7.636,3.426,7.636,7.636v9.394C55.662,35.067,52.237,38.493,48.026,38.493z M48.026,17.827
		c-2.005,0-3.637,1.631-3.637,3.636v9.394c0,2.005,1.631,3.636,3.637,3.636c2.005,0,3.636-1.631,3.636-3.636v-9.394
		C51.662,19.458,50.031,17.827,48.026,17.827z"/>
	<path fill="#B2EDA6" d="M61.178,24.281c-10.342,0-19.114,6.687-22.249,15.97c0,1.297,10.026,2.349,22.396,2.349
		c12.37,0,22.102-1.052,22.102-2.349C80.292,30.968,71.518,24.281,61.178,24.281z"/>
	<path fill="#FFFFFF" d="M41.594,43.661c-0.212,0-0.428-0.034-0.64-0.106c-1.047-0.354-1.608-1.488-1.255-2.534
		c3.589-10.627,17.472-17.766,28.187-17.766c1.104,0,2,0.896,2,2s-0.896,2-2,2c-9.118,0-21.489,6.434-24.397,15.045
		C43.207,43.135,42.429,43.661,41.594,43.661z"/>
	<path fill="#3C663E" d="M61.325,44.6c-24.396,0-24.396-2.829-24.396-4.349c0-0.218,0.036-0.434,0.105-0.64
		c3.5-10.366,13.203-17.33,24.144-17.33s20.644,6.964,24.144,17.33c0.069,0.206,0.105,0.422,0.105,0.64
		C85.427,41.77,85.427,44.6,61.325,44.6z M41.432,39.299c2.825,0.627,10.034,1.301,19.893,1.301c10.094,0,16.91-0.678,19.604-1.288
		c-3.358-7.859-11.095-13.03-19.751-13.03C52.526,26.281,44.793,31.446,41.432,39.299z"/>
	<path fill="#3C663E" d="M48.966,15.827c3.112,0,5.636,2.523,5.636,5.636v4.052c2.36-0.797,4.887-1.233,7.516-1.233
		c0.171,0,0.337,0.017,0.506,0.021c1.385-4.369,5.47-7.535,10.297-7.535c5.967,0,10.804,4.836,10.804,10.803v9.133
		c5.333,1.273,8.454,3.024,8.454,4.958v13.151c0,0.147-0.023,0.294-0.06,0.438l-7.456,54.517c0,3.891-5.115,7.045-23.015,7.045
		s-23.015-3.154-23.015-7.045l-7.455-54.275c0,0,0-0.852,0-1v-13c0-2.175,3.889-3.95,10.495-5.243
		c0.625-1.106,1.335-2.156,2.125-3.142c-0.3-0.689-0.469-1.448-0.469-2.248v-9.394C43.329,18.351,45.852,15.827,48.966,15.827
		 M48.966,11.827c-5.313,0-9.637,4.322-9.637,9.636v9.394c0,0.481,0.035,0.956,0.105,1.425c-0.091,0.133-0.181,0.267-0.269,0.401
		c-5.911,1.309-11.987,3.578-11.987,8.808v13v1c0,0.182,0.012,0.364,0.037,0.544l7.424,54.046c0.098,2.724,1.514,6.284,7.426,8.428
		c4.274,1.55,10.68,2.303,19.583,2.303s15.309-0.753,19.583-2.303c5.913-2.145,7.329-5.705,7.426-8.429l7.402-54.122
		c0.08-0.389,0.119-0.766,0.119-1.146V41.66c0-4.544-4.819-6.853-8.454-8.015v-6.076c0-8.162-6.641-14.803-14.804-14.803
		c-5.473,0-10.367,2.958-12.937,7.597c-0.478,0.037-0.954,0.087-1.428,0.148C58.076,15.643,53.958,11.827,48.966,11.827
		L48.966,11.827z"/>
</g>
</svg>
