<?xml version="1.0" encoding="utf-8"?>
<!-- Generator: Adobe Illustrator 19.1.0, SVG Export Plug-In . SVG Version: 6.00 Build 0)  -->
<svg version="1.1" id="Слой_3" xmlns="http://www.w3.org/2000/svg" xmlns:xlink="http://www.w3.org/1999/xlink" x="0px" y="0px"
	 viewBox="0 0 128 128" enable-background="new 0 0 128 128" xml:space="preserve">
<g>
	<ellipse fill="#B8CBCD" cx="65.511" cy="115.429" rx="47.667" ry="10.186"/>
	<path fill="#F6E89A" d="M37.011,46.241c0-3.313,12.089-6,27-6c14.911,0,27,2.687,27,6l-9,21c0,2.209-8.06,4-18,4
		c-9.94,0-18-1.791-18-4L37.011,46.241z"/>
	<path fill="#8D4520" d="M64.011,73.241c-4.542,0-19.034-0.405-19.954-5.482l-8.884-20.73c-0.106-0.249-0.162-0.518-0.162-0.788
		c0-7.775,26.032-8,29-8c2.968,0,29,0.225,29,8c0,0.271-0.055,0.539-0.162,0.788l-8.884,20.73
		C83.044,72.836,68.553,73.241,64.011,73.241z M47.961,66.798c1.108,0.886,6.732,2.443,16.05,2.443
		c9.317,0,14.941-1.558,16.05-2.443c0.026-0.118,0.065-0.233,0.112-0.345l8.673-20.237c-1.659-1.547-10.589-3.975-24.835-3.975
		c-14.247,0-23.176,2.428-24.835,3.975l8.673,20.237C47.897,66.564,47.934,66.68,47.961,66.798z"/>
	<path fill="#F7BB83" d="M83.158,42.713c0.276-7.95-1.147-20.667-1.147-20.667s-3.927,1.023-6.601,2.612
		C70.097,16.111,64.011,8.491,64.011,8.491S44.844,32.489,44.844,43.074c0,10.586,8.582,19.167,19.167,19.167
		s19.167-8.581,19.167-19.167C83.178,42.958,83.162,42.832,83.158,42.713z"/>
	<path fill="#8D4520" d="M64.011,64.241c-11.671,0-21.167-9.495-21.167-21.167c0-11.157,18.804-34.829,19.604-35.831
		c0.76-0.951,2.366-0.951,3.126,0c0.058,0.072,5.486,6.889,10.546,14.793c2.553-1.18,5.247-1.89,5.386-1.926
		c0.564-0.144,1.158-0.042,1.638,0.287c0.479,0.329,0.79,0.85,0.854,1.426c0.059,0.523,1.427,12.859,1.162,20.867
		c0.012,0.169,0.018,0.279,0.018,0.384C85.178,54.746,75.683,64.241,64.011,64.241z M64.005,11.748
		c-5.935,7.753-17.162,23.941-17.162,31.326c0,9.466,7.701,17.167,17.167,17.167c9.466,0,17.167-7.701,17.167-17.167l-0.019-0.296
		c-0.001-0.045-0.001-0.09,0-0.135c0.197-5.659-0.5-13.919-0.89-17.963c-1.202,0.418-2.67,1.003-3.838,1.697
		c-0.937,0.553-2.146,0.26-2.72-0.664C70.122,19.94,66.141,14.551,64.005,11.748z"/>
	<path fill="#F6E89A" d="M72.031,38.441c0.115-3.328-1.437-6.075-1.437-6.075s-4.57,4.085-5.689,4.75c0-4.375-0.889-13-0.889-13
		s-8.023,10.046-8.023,14.477c0,4.432,3.592,8.023,8.023,8.023c4.431,0,8.023-3.592,8.023-8.023
		C72.039,38.544,72.033,38.491,72.031,38.441z"/>
	<path fill="#8D4520" d="M64.016,48.616c-5.527,0-10.023-4.496-10.023-10.023c0-4.884,7.048-13.956,8.461-15.725
		c0.507-0.635,1.348-0.9,2.126-0.671c0.779,0.228,1.343,0.906,1.426,1.714c0.027,0.264,0.507,4.945,0.754,9.155
		c0.816-0.7,1.697-1.472,2.502-2.191c0.452-0.403,1.063-0.579,1.659-0.482c0.597,0.099,1.118,0.463,1.416,0.989
		c0.074,0.131,1.799,3.229,1.698,7.031c0.004,0.062,0.006,0.121,0.006,0.18C74.039,44.12,69.542,48.616,64.016,48.616z M62.5,29.551
		c-2.365,3.47-4.508,7.257-4.508,9.042c0,3.321,2.702,6.023,6.023,6.023c3.321,0,6.023-2.702,6.023-6.023l-0.006-0.072
		c-0.002-0.05-0.002-0.099-0.001-0.148c0.033-0.938-0.1-1.831-0.286-2.597c-1.435,1.241-3.093,2.628-3.82,3.06
		c-0.618,0.367-1.385,0.375-2.011,0.019c-0.625-0.355-1.011-1.019-1.011-1.738C62.904,35.105,62.707,32.128,62.5,29.551z"/>
	<path fill="#F6E89A" d="M46.011,67.241c0,2.209,8.06,4,18,4c9.94,0,18-1.791,18-4l9-21c0,3.314-12.089,6-27,6
		c-14.911,0-27-2.686-27-6L46.011,67.241z"/>
	<path fill="#8D4520" d="M64.011,73.241c-4.542,0-19.034-0.405-19.954-5.482L35.768,48.42c-0.62-0.835-0.758-1.634-0.758-2.179
		c0-0.949,0.667-1.769,1.598-1.959c0.928-0.191,1.866,0.298,2.241,1.171l0.343,0.8c1.913,1.673,10.745,3.988,24.819,3.988
		c14.073,0,22.905-2.315,24.819-3.988l0.343-0.8c0.374-0.873,1.313-1.368,2.24-1.171c0.93,0.19,1.598,1.01,1.598,1.959
		c0,0.545-0.138,1.344-0.758,2.179l-8.288,19.339C83.044,72.836,68.553,73.241,64.011,73.241z M47.961,66.798
		c1.108,0.886,6.732,2.443,16.05,2.443c9.317,0,14.941-1.558,16.05-2.443c0.026-0.118,0.065-0.233,0.112-0.345l6.35-14.815
		c-5.737,1.78-14.507,2.603-22.512,2.603c-8.004,0-16.774-0.823-22.512-2.603l6.35,14.815C47.897,66.564,47.934,66.68,47.961,66.798
		z"/>
	<path fill="#F6E89A" d="M46.011,67.241c0,2.209,8.06,4,18,4c9.94,0,18-1.791,18-4l-10,49c0,1.657-0.544,3-8,3c-7.456,0-8-1.343-8-3
		L46.011,67.241z"/>
	<path fill="#8D4520" d="M64.011,121.241c-6.221,0-9.869-0.789-9.997-4.781l-9.86-48.313c-0.095-0.295-0.144-0.599-0.144-0.905
		c0-1.026,0.777-1.887,1.799-1.99c1.003-0.101,1.928,0.564,2.151,1.547c1.108,0.886,6.732,2.443,16.05,2.443
		c9.317,0,14.941-1.558,16.05-2.443c0.224-0.982,1.149-1.642,2.151-1.547c1.021,0.104,1.799,0.964,1.799,1.99
		c0,0.307-0.048,0.61-0.144,0.905l-9.86,48.313C73.88,120.452,70.232,121.241,64.011,121.241z M58.023,116.527
		c0.238,0.163,1.384,0.714,5.987,0.714c4.603,0,5.749-0.551,5.987-0.714c0.006-0.051,0.013-0.139,0.013-0.286
		c0-0.135,0.014-0.269,0.04-0.4l9.047-44.331c-5.223,1.618-13.028,1.731-15.088,1.731c-2.06,0-9.866-0.113-15.088-1.731
		l9.047,44.331c0.027,0.132,0.041,0.266,0.041,0.4C58.011,116.389,58.017,116.477,58.023,116.527z"/>
	<path opacity="0.2" fill="#8D4520" d="M63.844,77.241c-10.036,0-19-1.388-19-8h5c0-1.1-0.584-0.866-0.866-1.065
		c1.022,0.72,6.431,1.065,14.866,1.065c8.435,0,13.844-0.346,14.866-1.065c-0.283,0.199-0.866-0.034-0.866,1.065l5.35,0.458
		C83.194,76.312,73.88,77.241,63.844,77.241z"/>
	<path fill="#8D4520" d="M64.011,8.491c0,0,6.086,7.62,11.399,16.167c2.674-1.589,6.601-2.612,6.601-2.612
		s1.343,11.996,1.167,19.971c4.841,1.084,7.833,2.576,7.833,4.225c0,0.386-0.17,0.763-0.483,1.128l-8.517,19.872l-10,49
		c0,1.657-0.544,3-8,3c-7.456,0-8-1.343-8-3l-10-49l-8.517-19.872c-0.313-0.365-0.483-0.742-0.483-1.128
		c0-1.655,3.017-3.153,7.894-4.239C46.068,30.957,64.011,8.491,64.011,8.491 M64.011,4.491c-1.216,0-2.367,0.554-3.126,1.504
		c-1.766,2.211-16.244,20.593-19.418,32.734c-3.576,1.01-8.457,3.071-8.457,7.512c0,0.801,0.185,1.95,0.994,3.141l8.168,19.06
		l9.849,48.261c0.337,6.539,7.889,6.539,11.988,6.539c4.1,0,11.651,0,11.988-6.539l9.85-48.261l8.168-19.06
		c0.81-1.19,0.994-2.34,0.994-3.141c0-4.194-4.352-6.263-7.831-7.327c-0.132-7.736-1.145-16.875-1.193-17.313
		c-0.13-1.153-0.753-2.193-1.71-2.852c-0.673-0.462-1.465-0.703-2.266-0.703c-0.337,0-0.676,0.043-1.009,0.129
		c-0.292,0.076-2.07,0.552-4.117,1.361c-4.801-7.328-9.524-13.26-9.749-13.541C66.377,5.045,65.227,4.491,64.011,4.491L64.011,4.491
		z"/>
</g>
</svg>
